<?xml version="1.0" standalone="no"?><!DOCTYPE svg PUBLIC "-//W3C//DTD SVG 1.1//EN" "http://www.w3.org/Graphics/SVG/1.1/DTD/svg11.dtd"><svg t="1583464352910" class="icon" viewBox="0 0 1024 1024" version="1.1" xmlns="http://www.w3.org/2000/svg" p-id="2341" xmlns:xlink="http://www.w3.org/1999/xlink" width="32" height="32"><defs><style type="text/css"></style></defs><path d="M508.858182 986.042182c-261.748364 0-473.925818-212.177455-473.925818-473.925818S247.109818 38.190545 508.858182 38.190545s473.925818 212.177455 473.925818 473.925819-212.200727 473.925818-473.925818 473.925818m0-981.690182C228.421818 4.352 1.093818 231.703273 1.093818 512.116364s227.351273 507.764364 507.764364 507.764363c280.413091 0 507.787636-227.351273 507.787636-507.764363S789.271273 4.352 508.858182 4.352" fill="#d81e06" p-id="2342"></path><path d="M322.536727 512.302545l0.023273-1.326545-313.064727-1.931636c0 1.093818-0.093091 2.164364-0.093091 3.281454 0 90.88 24.785455 175.918545 67.84 248.925091l270.173091-155.997091a185.274182 185.274182 0 0 1-24.878546-92.951273zM416.791273 350.440727L264.029091 82.013091A492.986182 492.986182 0 0 0 77.498182 262.981818l270.173091 155.997091a186.717091 186.717091 0 0 1 69.12-68.538182zM602.856727 351.697455l151.831273-259.211637A488.261818 488.261818 0 0 0 508.718545 21.690182l0.023273 304.453818c34.350545 0 66.513455 9.355636 94.114909 25.553455zM258.536727 939.450182a488.471273 488.471273 0 0 0 241.710546 63.674182c2.839273 0 5.632-0.139636 8.448-0.186182V698.507636a185.064727 185.064727 0 0 1-94.068364-25.553454l-156.090182 266.496zM927.325091 270.452364l-257.466182 148.666181a185.204364 185.204364 0 0 1 25.041455 93.207273l-0.046546 1.070546 296.168727 1.838545c0.023273-0.977455 0.069818-1.931636 0.069819-2.909091 0-87.994182-23.249455-170.496-63.767273-241.873454zM600.855273 674.094545l148.573091 261.073455a492.776727 492.776727 0 0 0 178.106181-181.387636l-257.466181-148.642909a187.042909 187.042909 0 0 1-69.213091 68.95709z" fill="#d81e06" p-id="2343"></path><path d="M644.142545 512.302545a135.400727 135.400727 0 0 0-135.424-135.400727l-84.619636-160.791273 20.642909 173.824c-42.658909 22.784-71.400727 70.609455-71.400727 122.368a135.447273 135.447273 0 0 0 270.801454 0z m-133.492363 70.097455a68.491636 68.491636 0 1 1 0.023273-136.96 68.491636 68.491636 0 0 1-0.023273 136.96z" fill="#d81e06" p-id="2344"></path></svg>