<?xml version="1.0" standalone="no"?><!DOCTYPE svg PUBLIC "-//W3C//DTD SVG 1.1//EN" "http://www.w3.org/Graphics/SVG/1.1/DTD/svg11.dtd"><svg t="1583464424606" class="icon" viewBox="0 0 1024 1024" version="1.1" xmlns="http://www.w3.org/2000/svg" p-id="5443" xmlns:xlink="http://www.w3.org/1999/xlink" width="32" height="32"><defs><style type="text/css"></style></defs><path d="M1024 510.72C1024 228.48 794.88 0 512 0S0 228.48 0 510.72c0 260.48 195.84 475.52 448.64 506.88 14.08 3.2 31.36 4.48 52.48 4.48 5.76 0 11.52-0.64 16.64-1.28 279.68-1.92 506.24-229.76 506.24-510.08z m-72.96 7.04c-1.28-25.6-5.12-50.56-10.24-74.88 0.64-8.96 0.64-16.64 0.64-24.32 6.4 29.44 9.6 60.16 9.6 92.16v7.04zM72.96 510.72c0-30.72 3.2-61.44 9.6-90.24 19.2 20.48 63.36 19.84 74.24-10.24 19.84 11.52 45.44 13.44 45.44 37.12 0 76.8 2.56 158.72 72.32 160 1.92 0 39.04 14.08 56.32 59.52 5.76 16 30.08 0 56.32 0 13.44 0 0 22.4 0 69.76S490.24 857.6 490.24 857.6c-0.64 31.36 0.64 56.96 3.2 77.44-23.04-0.64-42.88 2.56-58.24 7.68-205.44-36.48-362.24-215.68-362.24-432z m547.2 424.96c-2.56-10.88-12.16-17.28-30.72-12.16 14.72-61.44 21.76-96 51.84-122.24 43.52-37.76 5.12-80-28.16-75.52-26.24 3.84-9.6-32.64-33.28-34.56-23.68-1.92-53.76-48.64-87.68-64.64-17.92-8.32-35.2-30.72-62.72-32-24.32-0.64-60.16 20.48-60.16 3.84 0-53.76-5.76-92.16-6.4-106.88-0.64-12.16-8.32-3.84 24.96-3.2 17.92 0.64 8.96-35.84 26.88-37.76 17.28-1.28 58.88 16.64 69.76 8.96 9.6-6.4 72.32 163.84 72.32 28.16 0-16-8.32-44.16 0-59.52 33.28-60.16 64-109.44 61.44-116.48-1.92-3.84-33.92-7.68-59.52 1.28-8.96 2.56 2.56 16.64-9.6 19.2-46.72 10.88-88.32-12.8-73.6-34.56C490.24 275.2 544 288 549.12 242.56c2.56-25.6 5.12-56.32 6.4-78.08 63.36 9.6 56.32-81.92-37.76-91.52 190.08 1.92 350.72 124.8 409.6 294.4-3.2-2.56-6.4-4.48-10.24-4.48-28.16-71.04-97.28-19.84-73.6 42.88-125.44 96-92.8 163.2-51.84 201.6 21.76 20.48 42.24 50.56 55.68 72.32-14.72 42.88 53.76 25.6 87.68-46.72-44.16 147.84-163.84 264.32-314.88 302.72z m0 0" fill="#3B9CFF" p-id="5444"></path></svg>