<?xml version="1.0" standalone="no"?><!DOCTYPE svg PUBLIC "-//W3C//DTD SVG 1.1//EN" "http://www.w3.org/Graphics/SVG/1.1/DTD/svg11.dtd"><svg t="1583465853815" class="icon" viewBox="0 0 1024 1024" version="1.1" xmlns="http://www.w3.org/2000/svg" p-id="9075" xmlns:xlink="http://www.w3.org/1999/xlink" width="32" height="32"><defs><style type="text/css"></style></defs><path d="M798.931476 642.715087c4.237511-18.135032 6.354731-36.58729 6.354731-55.123458l0-202.553229c0-106.85875-68.980048-202.25647-173.21197-241.936191l0-5.021364c0-54.954613-46.905286-99.655697-104.569614-99.655697-57.666374 0-104.570637 44.701085-104.570637 99.655697l0 5.021364C318.702064 182.803419 249.764995 278.17965 249.764995 385.0384l0 202.553229c0 18.536168 2.118244 36.988426 6.355755 55.123458-67.624167 11.525498-114.326838 51.608402-114.326838 101.223403l0 72.9208c0 17.500583 14.223956 31.735795 31.714306 31.735795l185.55202 0c5.90857 58.661028 77.744665 103.553471 168.44234 103.553471s162.611541-44.892443 168.526251-103.553471l185.480388 0c17.499559 0 31.735795-14.235213 31.736818-31.735795l0-72.9208C913.247058 694.323489 866.55462 654.240585 798.931476 642.715087zM527.503601 908.761396c-66.182328 0-114.400516-28.707832-123.806747-57.795311l247.613494 0.169869C641.777227 880.161011 593.560062 908.761396 527.503601 908.761396zM869.858876 805.206902 185.182095 805.206902l0-61.267389c0-31.078833 43.949978-57.814754 100.091626-60.886719l28.810163-1.546216-9.532097-27.244504c-7.541767-21.672602-11.397584-44.10859-11.397584-66.669422L293.154201 385.039423c0-92.961228 63.554478-175.710884 158.083411-205.878974l15.083533-4.830005 0-36.248575c0-31.035854 27.456329-56.267515 61.183478-56.267515s61.183478 25.230638 61.183478 56.267515l0 36.269042 15.124466 4.830005c94.572936 30.146601 158.084435 112.874767 158.084435 205.857485l0 202.553229c0 22.540366-3.855818 44.953841-11.43954 66.627467l-9.533121 27.265994 28.811186 1.566682c56.141648 3.071965 100.122325 29.807886 100.122325 60.886719L869.857852 805.206902z" p-id="9076" fill="#ef6609"></path></svg>