<?xml version="1.0" standalone="no"?><!DOCTYPE svg PUBLIC "-//W3C//DTD SVG 1.1//EN" "http://www.w3.org/Graphics/SVG/1.1/DTD/svg11.dtd"><svg t="1583464492804" class="icon" viewBox="0 0 1024 1024" version="1.1" xmlns="http://www.w3.org/2000/svg" p-id="8588" xmlns:xlink="http://www.w3.org/1999/xlink" width="32" height="32"><defs><style type="text/css"></style></defs><path d="M925.642051 641.250478l-36.400975 36.389719 1.356901 1.333365L592.626134 976.956661c-21.382964 21.370684-50.401823 33.395531-80.619994 33.395532-30.255011 0-59.24931-12.024847-80.621018-33.395532L133.413279 678.972539l1.344622-1.333366-36.388696-36.389719c-104.172363-104.185666-104.172363-273.07383 0-377.258472 104.172363-104.172363 273.07383-104.172363 377.246193 0l36.389719 36.389719 36.376416-36.389719c104.185666-104.172363 273.07383-104.172363 377.259495 0 104.173386 104.173386 104.173386 273.07383 0.001023 377.259496" fill="#1296db" p-id="8589"></path><path d="M403.833681 447.511372c0 18.158532-14.739673 32.873646-32.873646 32.873646H316.170284v54.801008c0 18.158532-14.739673 32.885926-32.898205 32.885925-18.157509 0-32.873646-14.727393-32.873646-32.885925v-54.801008h-54.788728c-18.169789 0-32.897182-14.715114-32.897182-32.873646s14.728417-32.873646 32.897182-32.873646h54.788728v-54.801007c0-18.158532 14.716137-32.873646 32.873646-32.873646 18.158532 0 32.898205 14.715114 32.898205 32.873646v54.801007h54.789751c18.133973 0 32.873646 14.716137 32.873646 32.873646" fill="#1296db" p-id="8590"></path></svg>