<?xml version="1.0" standalone="no"?><!DOCTYPE svg PUBLIC "-//W3C//DTD SVG 1.1//EN" "http://www.w3.org/Graphics/SVG/1.1/DTD/svg11.dtd"><svg t="1583288674174" class="icon" viewBox="0 0 1027 1024" version="1.1" xmlns="http://www.w3.org/2000/svg" p-id="11386" xmlns:xlink="http://www.w3.org/1999/xlink" width="32.09375" height="32"><defs><style type="text/css"></style></defs><path d="M1027.18862 771.034603a139.159541 139.159541 0 0 0-151.220417-125.95001 30.152191 30.152191 0 0 0-4.996649 0.861491l-226.227583 57.777341a104.297865 104.297865 0 0 0-82.128826-63.750347l-269.359574-41.581307a105.044491 105.044491 0 0 0-107.399233 56.169225l-144.500787-32.851531a32.104904 32.104904 0 1 0-14.243321 62.54426l173.044861 39.398863a32.104904 32.104904 0 0 0 38.939401-26.935957 40.547518 40.547518 0 0 1 44.96984-34.804244l269.359574 41.581307a40.547518 40.547518 0 0 1-10.625058 80.405844l-259.596007-37.158986a32.162337 32.162337 0 0 0-9.074374 63.578048l259.883171 37.158986a107.054637 107.054637 0 0 0 14.071023 0.918924 104.987058 104.987058 0 0 0 101.655959-79.659217l234.440465-59.902353a75.122031 75.122031 0 0 1 73.743645 45.946196l-416.904297 175.514469a31.932606 31.932606 0 0 0-14.760215 12.577771 81.497065 81.497065 0 0 1-106.882339-7.12166 32.334635 32.334635 0 0 0-5.111514-4.192591 31.932606 31.932606 0 0 0-14.473052-7.638555l-358.495195-81.554498a32.104904 32.104904 0 0 0-14.300753 62.544259l350.684341 80.405844a145.592009 145.592009 0 0 0 197.28148 0.804058l432.583436-182.119235a32.162337 32.162337 0 0 0 19.527133-32.506933zM342.705164 325.069337a32.104904 32.104904 0 0 0 0 64.209809h143.294699v111.93642a32.104904 32.104904 0 0 0 32.047472 32.104905 32.104904 32.104904 0 0 0 32.104905-32.047472V389.336579h143.237266a32.104904 32.104904 0 0 0 0-64.209809H550.15224V252.991242h143.1224a32.104904 32.104904 0 0 0 0-64.209809h-109.122215l114.23373-136.115606a32.104904 32.104904 0 0 0-49.16243-41.236711L520.746674 164.65968 392.154758 11.486549a32.104904 32.104904 0 0 0-49.16243 41.236711l114.176297 136.00074H342.705164a32.104904 32.104904 0 0 0 0 64.209809h143.581863v72.192961H342.992328z" fill="#1296db" p-id="11387"></path></svg>