<?xml version="1.0" standalone="no"?><!DOCTYPE svg PUBLIC "-//W3C//DTD SVG 1.1//EN" "http://www.w3.org/Graphics/SVG/1.1/DTD/svg11.dtd"><svg t="1583288130181" class="icon" viewBox="0 0 1025 1024" version="1.1" xmlns="http://www.w3.org/2000/svg" p-id="4007" xmlns:xlink="http://www.w3.org/1999/xlink" width="32.03125" height="32"><defs><style type="text/css"></style></defs><path d="M690.176 590.848c-7.68-6.656-20.992-7.168-28.672-0.512-40.96 35.328-93.184 55.808-149.504 55.808-55.808 0-108.544-20.48-149.504-56.32-7.68-6.656-19.456-6.656-27.648 0-58.88 51.2-141.312 70.656-223.744 43.52-3.584-1.024-8.704-2.56-8.704-3.584v256.512c0 59.392 45.568 96.256 104.96 96.256h610.304c59.392 0 109.056-36.864 109.056-96.256v-256c-87.04 33.28-175.104 14.336-236.544-39.424z m-335.872 305.664c0 9.728-18.432 16.896-39.424 16.896s-39.424-7.68-39.424-16.896v-201.728c0-9.728 18.432-16.896 39.424-16.896s39.424 7.68 39.424 16.896v201.728z" p-id="4008" fill="#1296db"></path><path d="M1018.368 374.272l-2.048-6.144L881.152 92.16c-14.848-29.696-45.056-49.152-78.336-49.152h-583.68c-33.28 0-64 18.944-78.336 49.152l-133.12 276.992c-0.512 1.536-1.536 4.096-2.048 5.632-4.096 15.36-5.632 28.16-5.632 43.008 0 83.456 53.76 156.672 134.144 178.688 79.872 21.504 154.624-9.216 197.632-65.536 8.192-10.752 25.088-10.752 33.792 0 33.792 44.032 87.04 72.192 146.432 72.192s112.64-28.16 146.432-72.192c8.704-10.752 25.088-11.264 33.792 0 40.448 52.736 108.544 83.456 182.272 69.632 83.456-15.872 153.088-104.448 149.504-189.44-0.512-12.8-2.56-24.576-5.632-36.864z" p-id="4009" fill="#1296db"></path></svg>