<?xml version="1.0" standalone="no"?><!DOCTYPE svg PUBLIC "-//W3C//DTD SVG 1.1//EN" "http://www.w3.org/Graphics/SVG/1.1/DTD/svg11.dtd"><svg t="1583464467933" class="icon" viewBox="0 0 1024 1024" version="1.1" xmlns="http://www.w3.org/2000/svg" p-id="7430" xmlns:xlink="http://www.w3.org/1999/xlink" width="32" height="32"><defs><style type="text/css"></style></defs><path d="M1005.207341 648.046857H856.565404c11.195627-9.896134 20.791878-21.491605 28.188989-34.486529 1.399453 0 2.698946 0.399844 4.098399 0.399844 22.591175 0 44.182741-8.996486 60.176493-24.990238l48.18118-48.18118c33.187036-33.286997 33.187036-87.165951 0-120.452948-9.096447-9.196408-20.292073-16.093713-32.48731-20.292073l12.59508-12.59508c33.187036-33.286997 33.187036-87.165951 0-120.452948-5.597813-5.597813-11.895353-10.295978-18.692698-14.094495l18.692698-18.692698c26.289731-26.089809 32.587271-66.274112 15.593909-99.161265-16.993362-32.887153-53.379149-51.080047-89.864897-44.782507V85.966419c0-46.881687-38.185084-84.96681-85.166732-84.966809s-85.166732 38.085123-85.166731 85.166731v4.298321c-36.485748-6.29754-72.871535 11.795392-89.864897 44.782507-16.993362 32.887153-10.695822 73.071456 15.593909 99.161265l18.692698 18.692698c-6.897306 3.798516-13.194846 8.496681-18.692698 14.094495-2.199141 2.399063-4.298321 4.898087-6.197579 7.597032-42.183522-22.791097-92.563842-24.490433-136.246779-4.798126-34.086685-34.786412-88.065599-40.684108-128.849668-13.994533-40.784069 26.689574-56.977743 78.469348-38.684889 123.651699-21.891449 12.894963-40.184303 30.887934-53.279188 52.579461l8.396721-88.565404 3.498633-36.285826c0-38.185084-16.093713-74.570871-44.282702-100.260836l26.889496-134.747364c0.99961-4.998048-0.299883-10.196017-3.498633-14.194455s-8.096837-6.29754-13.194846-6.297541h-53.679032l2.598985-32.787192c0.399844-4.698165-1.299492-9.39633-4.498243-12.894963C214.116361 2.998829 209.618118 0.99961 204.819992 0.99961H102.659898C97.961734 0.99961 93.36353 2.998829 90.164779 6.397501c-3.19875 3.498633-4.898087 8.196798-4.498242 12.894963l2.598984 32.787192H34.58649c-5.098009 0-9.996095 2.299102-13.194846 6.29754-3.19875 3.998438-4.498243 9.196408-3.498633 14.194456l29.988285 149.841468c-19.692308 24.590394-30.38813 55.278407-30.288168 86.866068l32.387348 338.86763H17.593128c-9.39633 0-16.993362 7.597032-16.993362 16.993362v340.566966c0 4.498243 1.799297 8.896525 4.998047 11.995314 3.19875 3.19875 7.497071 4.998048 11.995315 4.998048h987.614213c4.498243 0 8.896525-1.799297 11.995314-4.998048 3.19875-3.19875 4.998048-7.497071 4.998048-11.995314V665.14018c0-9.39633-7.597032-17.093323-16.993362-17.093323zM720.418586 248.303007l-37.985162-37.985162c-17.893011-17.693089-20.092152-45.882077-5.197969-66.174151 14.894182-20.292073 42.383444-26.689574 64.674736-14.994143 5.29793 2.698946 11.595471 2.499024 16.693479-0.599766s8.196798-8.596642 8.196799-14.494338V86.166341c0-28.188989 22.891058-51.080047 51.080046-51.080047 28.188989 0 51.080047 22.891058 51.080047 51.080047V113.955486c0 5.897696 3.09879 11.49551 8.196798 14.594299 5.098009 3.09879 11.395549 3.298711 16.69348 0.599766 22.291292-11.695431 49.780554-5.29793 64.674736 14.994143 14.894182 20.292073 12.695041 48.481062-5.19797 66.174151l-37.985162 37.985162c-4.598204 4.498243-6.197579 11.295588-4.19836 17.393205 1.999219 6.097618 7.29715 10.595861 13.694651 11.595471 19.092542 2.798907 34.986333 16.093713 40.98399 34.386568 5.997657 18.292854 1.199531 38.484967-12.495119 52.079656l-37.885201 37.885201c-5.19797 5.19797-6.597423 13.094885-3.298711 19.692308s10.395939 10.295978 17.693089 9.196408c15.893791-2.499024 31.987505 2.798907 43.383053 14.194455 19.89223 19.992191 19.89223 52.279578 0 72.271769l-48.181179 48.181179c-7.197189 6.997267-16.293635 11.795392-26.18977 13.594689 14.894182-58.877001-11.195627-120.452948-63.97501-150.541194v-26.989458l61.276064-45.982038c7.497071-5.597813 9.096447-16.293635 3.398673-23.790707-5.597813-7.497071-16.293635-8.996486-23.790707-3.398672L834.873877 358.559938V264.896525l61.276064-45.982038c7.497071-5.597813 9.096447-16.293635 3.398673-23.790707-5.597813-7.497071-16.293635-8.996486-23.790707-3.398673L834.873877 222.41312v-51.080047c0-9.39633-7.597032-16.993362-16.993362-16.993362s-16.993362 7.597032-16.993362 16.993362v51.080047l-40.884029-30.688013c-7.497071-5.597813-18.192893-4.098399-23.790707 3.398673-5.597813 7.497071-4.098399 18.192893 3.398672 23.890667l61.276064 45.982039v93.663412l-40.884029-30.688012c-7.497071-5.597813-18.192893-4.098399-23.790707 3.398672-5.597813 7.497071-4.098399 18.192893 3.398672 23.890668l61.276064 45.982038v12.994924c-22.391253-5.997657-45.982038-5.997657-68.373291 0.199922 0-1.499414 0.299883-3.09879 0.299883-4.698165 0-44.282702-19.192503-86.366263-52.679422-115.354939 0.799688-0.99961 1.499414-2.09918 2.399062-2.998829 7.696993-7.696993 17.693089-12.59508 28.488872-14.194455 6.397501-0.99961 11.695431-5.397891 13.69465-11.595471 1.999219-6.097618 0.299883-12.894963-4.298321-17.293244z m-21.691526 161.436938c-0.099961 6.597423-0.699727 13.194846-1.799297 19.692308-23.590785 14.094494-42.383444 34.986333-53.878954 59.976572-20.591956-10.695822-44.282702-14.094494-66.973838-9.39633-11.895353-54.978524-52.879344-99.061304-106.758298-115.055056 21.391644-52.879344 77.269816-83.167513 133.24795-72.171808 55.778212 10.795783 96.162437 59.876611 96.162437 116.954314z m-323.573604-68.173369c-0.099961-26.18977 14.894182-50.080437 38.484966-61.376025 23.590785-11.395549 51.579852-8.196798 71.971886 8.196798-23.390863 18.092932-41.083952 42.583366-50.780164 70.572432-2.898868-0.099961-5.697774-0.399844-8.596641-0.399843-15.793831 0-31.4877 2.499024-46.581804 7.297149-2.998829-7.696993-4.498243-15.993752-4.498243-24.290511z m-67.373682 157.138617c6.797345-61.276064 59.176884-107.158141 120.75283-105.95861 61.575947 1.199531 112.056228 49.28075 116.354549 110.756736 0.399844 5.497852 3.398672 10.4959 8.196799 13.394768 4.698165 2.898868 10.595861 3.19875 15.693869 0.999609 23.890668-10.895744 51.979695-6.697384 71.672003 10.695822 4.498243 3.798516 10.595861 5.098009 16.193675 3.298712 5.597813-1.799297 9.896134-6.29754 11.395548-11.995315 13.494729-51.279969 63.97501-83.767278 116.254588-74.670831 52.279578 9.096447 88.865287 56.577899 84.367044 109.457243-4.598204 52.879344-48.780945 93.463491-101.86021 93.36353h-493.807107c-26.089809 0.099961-49.980476-14.69426-61.475986-38.185084-11.49551-23.490824-8.496681-51.479891 7.696993-71.971886s42.583366-29.988286 68.17337-24.390473c4.698165 0.99961 9.596251 0 13.494729-2.898867 3.798516-2.798907 6.29754-7.197189 6.897306-11.895354zM252.201484 86.166341l-19.992191 99.960953c-7.197189-3.698555-14.69426-6.697384-22.491214-9.096447l7.097228-90.864506h35.386177z m-65.774307-51.080047l-10.595861 136.446701c-1.699336 0-3.398672-0.299883-5.098009-0.299883h-16.993362c-7.397111 0-14.794221 0.699727-22.09137 1.999219L121.052714 35.086294h65.374463zM90.864506 86.166341l7.497072 97.062085c-7.397111 3.298711-14.494338 7.29715-21.191722 11.895354l-21.791488-108.957439h35.486138z m-13.294807 493.807107h59.176884c9.39633 0 16.993362-7.597032 16.993362-16.993362s-7.597032-16.993362-16.993362-16.993362H74.370949L71.172198 511.900039h48.581023c9.39633 0 16.993362-7.597032 16.993362-16.993362s-7.597032-16.993362-16.993362-16.993362H68.673175c-0.299883 0-0.499805 0.099961-0.799688 0.199922l-3.398672-35.086294c1.299492 0.499805 2.698946 0.699727 4.19836 0.799687h85.166731c9.39633 0 16.993362-7.597032 16.993362-16.993362s-7.597032-16.993362-16.993362-16.993362H68.673175c-2.499024 0-4.898087 0.599766-7.097228 1.699336L58.177275 375.753221h61.575946c9.39633 0 16.993362-7.597032 16.993362-16.993362s-7.597032-16.993362-16.993362-16.993362H54.878563l-3.298711-34.086684c0.099961-56.377977 45.782116-102.160094 102.160093-102.160094h16.993362c23.09098 0 45.482234 7.796954 63.575166 22.09137l0.199922 0.199922c24.09059 18.89262 38.185084 47.681374 38.385006 78.269426l-3.298711 34.786412-13.194846 138.54588c-36.885592 5.997657-67.473643 31.587661-79.868801 66.773917-12.395158 35.186255-4.598204 74.370949 20.491995 102.060133h-112.955877l-6.497462-68.273331z m910.64428 102.160094v51.080046h-442.827021c-9.39633 0-16.993362 7.597032-16.993362 16.993362s7.597032 16.993362 16.993362 16.993362h442.72706v51.080047h-953.627489v-51.080047H324.073409c9.39633 0 16.993362-7.597032 16.993362-16.993362s-7.597032-16.993362-16.993362-16.993362H34.58649v-51.080046h953.627489zM34.58649 988.613823v-51.080047h613.060523c9.39633 0 16.993362-7.597032 16.993362-16.993362s-7.597032-16.993362-16.993362-16.993362H34.58649v-51.080047h953.627489v51.080047H851.9672c-9.39633 0-16.993362 7.597032-16.993362 16.993362s7.597032 16.993362 16.993362 16.993362h136.246779V988.613823h-953.627489z m0 0" p-id="7431" fill="#ef6609"></path></svg>