<?xml version="1.0" standalone="no"?><!DOCTYPE svg PUBLIC "-//W3C//DTD SVG 1.1//EN" "http://www.w3.org/Graphics/SVG/1.1/DTD/svg11.dtd"><svg t="1583288735832" class="icon" viewBox="0 0 1024 1024" version="1.1" xmlns="http://www.w3.org/2000/svg" p-id="12191" xmlns:xlink="http://www.w3.org/1999/xlink" width="32" height="32"><defs><style type="text/css"></style></defs><path d="M265.5232 314.325333c-1.706667 27.332267 13.6448 40.379733 26.8288 46.506667 32.0512 14.907733 91.008 6.997333 137.1136-37.0176 9.275733-8.8576 47.342933-46.114133 55.893333-59.434667-69.998933-59.3152-121.019733-64.238933-155.9552-50.688-7.9872 3.106133-15.829333 7.406933-23.552 12.629334-13.627733 8.567467-37.341867 40.2688-40.328533 88.004266" p-id="12192" fill="#1296db"></path><path d="M181.666133 801.28c127.214933 33.220267 222.395733-31.402667 350.190934-160.392533 75.5712-76.288 159.069867-144.8704 199.2704-170.683734 51.1744-32.8704 98.824533-35.882667 141.6448-8.96 4.369067 2.7648 8.593067 6.033067 12.629333 9.634134a835.413333 835.413333 0 0 0-7.0656-15.650134c-49.604267-113.152-108.544-187.733333-175.880533-233.3952a121.514667 121.514667 0 0 0-18.961067-10.5984l-0.896-0.384c-0.785067-0.341333-1.5616-0.622933-2.346667-0.938666-64.964267-24.004267-130.8416 40.6528-200.183466 108.740266a3051.895467 3051.895467 0 0 1-30.250667 29.431467c-35.490133 33.877333-83.310933 53.162667-125.218133 53.162667-16.597333 0-32.264533-3.012267-45.8752-9.344-27.886933-12.970667-42.752-38.519467-40.7808-70.084267 0.861867-13.7728 3.6864-26.5472 7.509333-38.237867a500.846933 500.846933 0 0 0-26.794667 38.510934c-29.661867 45.986133-65.425067 115.234133-100.855466 217.565866-14.0544 39.415467-21.802667 66.005333-21.802667 66.005334s0.546133-1.425067 1.681067-3.933867l-1.681067 5.495467c-30.830933 102.468267 9.335467 167.645867 67.2768 188.245333 6.203733 2.184533 12.3136 4.0704 18.389333 5.802667" p-id="12193" fill="#1296db"></path><path d="M914.7392 550.741333c-5.751467-15.991467-23.534933-46.301867-48.0512-61.696-33.629867-21.154133-70.178133-18.466133-111.7696 8.2432-31.402667 20.1728-108.817067 82.090667-182.698667 156.6464-7.168 7.236267-27.434667 25.8048-34.645333 32.878934 187.528533 169.659733 294.417067 130.244267 349.047467 84.7104 57.233067-47.6928 52.309333-144.059733 28.117333-220.782934" p-id="12194" fill="#1296db"></path></svg>