<?xml version="1.0" standalone="no"?><!DOCTYPE svg PUBLIC "-//W3C//DTD SVG 1.1//EN" "http://www.w3.org/Graphics/SVG/1.1/DTD/svg11.dtd"><svg t="1583288630599" class="icon" viewBox="0 0 1024 1024" version="1.1" xmlns="http://www.w3.org/2000/svg" p-id="10837" xmlns:xlink="http://www.w3.org/1999/xlink" width="32" height="32"><defs><style type="text/css"></style></defs><path d="M1023.696315 480.345237v66.126011c-0.362671 1.349776-0.896187 2.680568-1.062036 4.053323-1.75241 14.632725-2.890378 29.359366-5.243243 43.891182-17.180414 106.131719-62.905933 198.479941-138.346494 274.792712-109.781408 111.052255-243.608002 162.421653-399.764339 153.877404-71.922753-3.934431-139.844135-23.389781-203.433448-57.164141-100.489837-53.375578-175.499789-131.543665-224.858011-234.057666-24.148093-50.1555-39.265379-103.052512-45.557671-158.418285-1.164943-10.242708-2.371848-20.479421-3.558772-30.719132v-58.638803c0.401636-1.765398 0.944143-3.511814 1.183926-5.297195 3.088198-23.037101 4.672761-46.385919 9.439437-69.066344 22.746365-108.2468 75.08888-200.050517 156.930635-274.451021 79.798608-72.544189 173.543563-115.645088 280.679371-129.136849 60.603022-7.632076 120.771438-4.696739 180.113603 9.692207 119.128928 28.887793 216.093962 92.312255 290.376574 189.72988 55.21491 72.412308 88.167016 154.2131 99.451779 244.650056 1.251864 10.040891 2.433792 20.090774 3.648689 30.136661zM512.489076 973.801579c251.1062 0.435605 458.687884-202.217551 460.953829-456.185154 2.287924-256.326464-203.705201-462.570362-456.065264-464.892256C259.243817 50.349324 52.533342 259.656443 52.322534 512.994618c-0.208811 252.334086 205.089945 460.689069 460.166542 460.806961z" fill="#ef6609" p-id="10838"></path><path d="M678.034895 395.749981c-20.113753-20.066796-38.784815-38.693897-57.452879-57.323997-5.148329-5.139338-10.38358-10.197749-15.413018-15.451982-10.949067-11.439622-11.217823-27.21631-0.757313-37.268191 10.439529-10.032898 25.466897-9.324541 36.708699 1.898278 38.241308 38.185359 76.446649 76.406685 114.642997 114.635005 8.446338 8.453331 10.860148 19.056712 6.374217 29.053643-4.788656 10.672318-13.386856 15.162245-24.929384 15.157249-151.735348-0.055949-303.472693-0.036966-455.20904-0.036966-9.353515 0-18.708028 0.074932-28.060544-0.019982-14.746622-0.145868-25.600775-10.508467-25.973437-24.665624-0.361672-13.696575 9.937984-24.708585 24.243007-25.83756 2.480749-0.195822 4.984478-0.135877 7.478216-0.135877 136.3553-0.004995 272.7106-0.004995 409.064901-0.004996l9.283578 0.001zM314.662542 615.468655c3.927437 3.632704 7.974765 7.144519 11.762329 10.916097 19.597222 19.512299 39.178458 39.041582 58.657787 58.670774 8.051696 8.111641 9.991935 18.906848 5.56695 28.667993-4.252143 9.382488-14.435904 16.131366-24.661628 14.333996-5.978576-1.050047-12.660515-3.885475-16.913656-8.066682-37.8097-37.166283-75.167809-74.794148-112.608843-112.33609-7.864865-7.885846-10.696296-17.236363-6.724899-27.938654 3.895466-10.502472 11.970141-15.500938 22.898227-16.283228a87.366742 87.366742 0 0 1 6.221356-0.243779c158.441264-0.01099 316.881529-0.011989 475.322793-0.005995 14.949438 0 24.177067 5.221263 28.362271 15.958523 6.740885 17.302304-5.464043 34.600611-24.553726 34.605606-138.271562 0.026976-276.543124 0.014986-414.815684 0.014987h-7.404283l-1.108994 1.706452z" fill="#ef6609" p-id="10839"></path></svg>