<?xml version="1.0" standalone="no"?><!DOCTYPE svg PUBLIC "-//W3C//DTD SVG 1.1//EN" "http://www.w3.org/Graphics/SVG/1.1/DTD/svg11.dtd"><svg t="1583464439877" class="icon" viewBox="0 0 1024 1024" version="1.1" xmlns="http://www.w3.org/2000/svg" p-id="6349" xmlns:xlink="http://www.w3.org/1999/xlink" width="32" height="32"><defs><style type="text/css"></style></defs><path d="M1024 512A512 512 0 1 1 512 0a512 512 0 0 1 512 512z" fill="#F37531" p-id="6350"></path><path d="M744.250542 209.459129l-19.160922 19.160922-419.019106 554.658263-23.093953 30.254087 209.862517 210.064211h19.160922a512 512 0 0 0 512-512c0-7.563522 0-15.127044-0.504235-22.690565z" fill="#D45226" p-id="6351"></path><path d="M280.959622 208.551507h462.181603v606.796139H280.959622z" fill="#FFFFFF" p-id="6352"></path><path d="M562.120938 297.59937h106.897774v21.480402h-106.897774zM562.120938 379.083711h106.897774v21.480402h-106.897774zM562.120938 460.568052h106.897774v21.480402h-106.897774zM354.981288 542.052393h314.037424v21.480402H354.981288zM354.981288 623.536734h314.037424v21.480402H354.981288zM354.981288 705.021075h314.037424v21.480402H354.981288z" fill="#B1B1B1" p-id="6353"></path><path d="M354.981288 308.389994h122.226512v162.867835H354.981288z" fill="#E0594F" p-id="6354"></path></svg>