<?xml version="1.0" standalone="no"?><!DOCTYPE svg PUBLIC "-//W3C//DTD SVG 1.1//EN" "http://www.w3.org/Graphics/SVG/1.1/DTD/svg11.dtd"><svg t="1583285546669" class="icon" viewBox="0 0 1024 1024" version="1.1" xmlns="http://www.w3.org/2000/svg" p-id="2321" xmlns:xlink="http://www.w3.org/1999/xlink" width="32" height="32"><defs><style type="text/css"></style></defs><path d="M592.432 954.349c10.273 11.063 8.805 28.447-3.16 37.591-10.16 7.563-23.594 7.563-33.641 0l-112.662-86.584-116.16 89.293c-10.16 7.564-23.594 7.564-33.64 0l-111.985-86.133L69.2 994.65c-6.209 4.742-13.885 6.548-21.449 5.306-1.467 0.226-2.935 0.339-4.402 0.452-14.337 0.677-26.529-11.176-27.206-26.529v-849.59c2.71-56.443 47.187-99.904 99.792-97.42h653.166c52.492-2.597 97.083 40.977 99.792 97.42v427.166c0 17.498-17.046 29.69-33.64 24.158-22.917-7.676-47.413-11.853-72.926-11.966-127.9-0.226-231.757 103.856-231.757 232.322-0.226 61.185 23.368 116.951 61.862 158.38zM480.561 509.46c0-17.272-13.998-31.157-31.157-31.157h-340.58c-17.272 0-31.158 13.998-31.158 31.157 0 17.272 13.998 31.157 31.157 31.157h340.581c17.159 0 31.157-13.885 31.157-31.157z m365.755-159.51c0-17.271-13.999-31.156-31.157-31.156H108.823c-17.271 0-31.157 13.998-31.157 31.156 0 17.272 13.998 31.157 31.157 31.157h706.223c17.271 0 31.27-13.998 31.27-31.157z m-221.26-159.51c0-17.271-13.997-31.156-31.156-31.156H108.823c-17.271 0-31.157 13.998-31.157 31.157 0 17.271 13.998 31.157 31.157 31.157H593.9c17.271 0 31.157-13.998 31.157-31.157z m142.577 805.451c-109.275 0-197.891-88.616-197.891-197.891S658.358 600.22 767.633 600.22s197.779 88.617 197.779 197.892c-0.113 109.162-88.617 197.665-197.779 197.778z m140.658-222.84c2.709-6.547 1.241-13.997-3.726-18.964l-60.62-60.62c-6.773-6.774-17.836-6.774-24.61 0s-6.773 17.835 0 24.609l30.932 30.93H643.006c-9.596 0-17.385 7.79-17.385 17.385s7.79 17.385 17.385 17.385H892.26c6.999 0 13.32-4.177 16.03-10.724zM715.818 915.629c6.773-6.773 6.773-17.836 0-24.61l-30.931-30.817H892.26c9.595 0 17.384-7.79 17.384-17.385s-7.789-17.385-17.384-17.385H643.006a17.308 17.308 0 0 0-16.03 10.725c-2.71 6.547-1.242 13.998 3.725 18.965l60.62 60.62c3.387 3.387 7.79 5.08 12.305 5.08s8.805-1.806 12.192-5.193z" p-id="2322" fill="#e98f36"></path></svg>