<?xml version="1.0" standalone="no"?><!DOCTYPE svg PUBLIC "-//W3C//DTD SVG 1.1//EN" "http://www.w3.org/Graphics/SVG/1.1/DTD/svg11.dtd"><svg t="1583288499006" class="icon" viewBox="0 0 1024 1024" version="1.1" xmlns="http://www.w3.org/2000/svg" p-id="9172" xmlns:xlink="http://www.w3.org/1999/xlink" width="32" height="32"><defs><style type="text/css"></style></defs><path d="M688.3 135C542.8 14.6 395.5 62.4 346.6 169.6c-7.9 17.7-53.8 137.6 70.5 275.3 0.3 0.3 0.6 0.6 0.9 1 2 2.2 4 4.4 6.1 6.7 62.3 65.9 151.7 111.3 151.7 205.7 0 119-124.3 214.5-250.7 138.6 0 0-20.4-12.7-34.3-30.2-17.1-21.5-117.4-147.8 85.2-298-24.8-24.6-99.9-110-91-236.2-115.7 108.8-153.5 227.1-153.5 334.7 0 246.1 173.7 404.6 376.5 398 235.5-7.6 386.4-190.5 386.4-426.8 0-137.7-69.4-290.3-206.1-403.4z" fill="#1296db" p-id="9173"></path></svg>