<?xml version="1.0" standalone="no"?><!DOCTYPE svg PUBLIC "-//W3C//DTD SVG 1.1//EN" "http://www.w3.org/Graphics/SVG/1.1/DTD/svg11.dtd"><svg t="1583288004616" class="icon" viewBox="0 0 1024 1024" version="1.1" xmlns="http://www.w3.org/2000/svg" p-id="2367" xmlns:xlink="http://www.w3.org/1999/xlink" width="32" height="32"><defs><style type="text/css"></style></defs><path d="M376.2 950.9c-77.4 0-150.4-13-205.5-36.6-58.4-25-90.5-59.5-90.5-97.2 0-6.7 5.4-12.2 12.2-12.2s12.2 5.4 12.2 12.2c0 26.9 27.6 54.2 75.8 74.8 52.1 22.3 121.7 34.6 195.9 34.6 53.1 0 104.7-6.4 149.2-18.6 6.5-1.8 13.2 2 14.9 8.5 1.8 6.5-2 13.2-8.5 14.9-46.6 12.9-100.4 19.6-155.7 19.6zM383 738.1h-6.8c-77.4 0-150.4-13-205.5-36.6-58.4-25-90.5-59.5-90.5-97.2 0-6.7 5.4-12.2 12.2-12.2s12.2 5.4 12.2 12.2c0 26.9 27.6 54.2 75.8 74.8 52.1 22.3 121.7 34.6 195.9 34.6h4.7c2.8 0 4.1 0 8.6-0.1 6.7-0.2 12.3 5.1 12.5 11.8 0.2 6.7-5.1 12.3-11.8 12.5-3.7 0.1-5.5 0.2-7.3 0.2zM376.2 535.3c-77.4 0-150.4-13-205.5-36.6-58.4-25-90.5-59.5-90.5-97.2 0-6.7 5.4-12.2 12.2-12.2s12.2 5.4 12.2 12.2c0 26.9 27.6 54.2 75.8 74.8 52 22.4 121.6 34.7 195.8 34.7 15.4 0 30.9-0.5 46-1.6 6.7-0.5 12.5 4.6 13 11.3 0.5 6.7-4.6 12.5-11.3 13-15.7 1-31.7 1.6-47.7 1.6zM376.2 332.6c-77.4 0-150.4-13-205.5-36.6-58.4-25-90.5-59.5-90.5-97.2s32.1-72.2 90.5-97.2C225.8 78 298.8 65 376.2 65s150.4 13 205.5 36.6c58.4 25 90.5 59.5 90.5 97.2S640 271 581.7 296c-55.1 23.6-128.1 36.6-205.5 36.6z m0-243.3c-74.2 0-143.8 12.3-195.9 34.6-48.1 20.6-75.8 47.9-75.8 74.8s27.6 54.2 75.8 74.8c52.1 22.3 121.7 34.6 195.9 34.6s143.8-12.3 195.9-34.6c48.1-20.6 75.8-47.9 75.8-74.8s-27.6-54.2-75.8-74.8c-52.2-22.3-121.7-34.6-195.9-34.6z" fill="#17abe3" p-id="2368"></path><path d="M92.4 841.1c-6.7 0-12.2-5.4-12.2-12.2v-620c0-6.7 5.4-12.2 12.2-12.2 6.7 0 12.2 5.4 12.2 12.2v620c-0.1 6.7-5.5 12.2-12.2 12.2zM660 412c-6.7 0-12.2-5.4-12.2-12.2V208.9c0-6.7 5.4-12.2 12.2-12.2 6.7 0 12.2 5.4 12.2 12.2v190.9c0 6.8-5.5 12.2-12.2 12.2z" fill="#17abe3" p-id="2369"></path><path d="M660 415.7c35 0 69 6.9 101 20.4 30.9 13.1 58.6 31.8 82.5 55.6 23.8 23.8 42.6 51.6 55.6 82.5 13.5 32 20.4 66 20.4 101s-6.9 69-20.4 101c-13.1 30.9-31.8 58.6-55.6 82.5-23.8 23.8-51.6 42.6-82.5 55.6-32 13.5-66 20.4-101 20.4s-69-6.9-101-20.4c-30.9-13.1-58.6-31.8-82.5-55.6-23.8-23.8-42.6-51.6-55.6-82.5-13.5-32-20.4-66-20.4-101 0-46 12.2-91.3 35.3-130.8 22.5-38.5 54.7-70.7 93.1-93.2 39.6-23.2 84.9-35.5 131.1-35.5m0-24.3c-104.6 0-195.9 56.6-245.2 140.8-24.6 42-38.6 90.9-38.6 143.1 0 156.6 127 283.7 283.8 283.7s283.8-127.1 283.8-283.8S816.7 391.4 660 391.4z" fill="#17abe3" p-id="2370"></path><path d="M660 809c-6.7 0-12.2-5.4-12.2-12.2V626.6c0-6.7 5.4-12.2 12.2-12.2 6.7 0 12.2 5.4 12.2 12.2v170.2c0 6.7-5.5 12.2-12.2 12.2z" fill="#17abe3" p-id="2371"></path><path d="M760.3 719H559.6c-6.7 0-12.2-5.8-12.2-12.5s5.4-12.5 12.2-12.5h200.7c6.7 0 12.2 5.8 12.2 12.5s-5.4 12.5-12.2 12.5zM746.9 634.4H573.1c-6.7 0-12.2-5.4-12.2-12.2s5.4-12.2 12.2-12.2h173.8c6.7 0 12.2 5.4 12.2 12.2s-5.5 12.2-12.2 12.2z" fill="#17abe3" p-id="2372"></path><path d="M677.4 631.2c-2.7 0-5.3-0.9-7.6-2.7-5.3-4.2-6.1-11.8-1.9-17.1l52.2-65.5c4.2-5.3 11.8-6.1 17.1-1.9 5.3 4.2 6.1 11.8 1.9 17.1l-52.2 65.5c-2.4 3-5.9 4.6-9.5 4.6zM642.6 631.2c-3.6 0-7.1-1.6-9.5-4.6l-52.2-65.5c-4.2-5.3-3.3-12.9 1.9-17.1 5.3-4.2 12.9-3.3 17.1 1.9l52.2 65.5c4.2 5.3 3.3 12.9-1.9 17.1-2.3 1.8-4.9 2.7-7.6 2.7z" fill="#17abe3" p-id="2373"></path></svg>